<svg xmlns="http://www.w3.org/2000/svg" xmlns:xlink="http://www.w3.org/1999/xlink" width="500" zoomAndPan="magnify" viewBox="0 0 375 374.999991" height="500" preserveAspectRatio="xMidYMid meet" version="1.0"><defs><g/><clipPath id="d7200048a2"><path d="M 135 154 L 194 154 L 194 216 L 135 216 Z M 135 154 " clip-rule="nonzero"/></clipPath><clipPath id="1ecf4ffa49"><path d="M 128.28125 164.914062 L 187.15625 149.9375 L 201.394531 205.902344 L 142.519531 220.878906 Z M 128.28125 164.914062 " clip-rule="nonzero"/></clipPath><clipPath id="6f9f45acc4"><path d="M 128.28125 164.914062 L 187.15625 149.9375 L 201.394531 205.902344 L 142.519531 220.878906 Z M 128.28125 164.914062 " clip-rule="nonzero"/></clipPath><clipPath id="ee0e2e1804"><path d="M 179 118 L 239 118 L 239 177 L 179 177 Z M 179 118 " clip-rule="nonzero"/></clipPath><clipPath id="a74b7a2c76"><path d="M 179.007812 117.863281 L 239.722656 119.933594 L 237.753906 177.648438 L 177.039062 175.578125 Z M 179.007812 117.863281 " clip-rule="nonzero"/></clipPath><clipPath id="98d0d8aa53"><path d="M 179.007812 117.863281 L 239.722656 119.933594 L 237.753906 177.648438 L 177.039062 175.578125 Z M 179.007812 117.863281 " clip-rule="nonzero"/></clipPath></defs><rect x="-37.5" width="450" fill="#ffffff" y="-37.499999" height="449.999989" fill-opacity="1"/><rect x="-37.5" width="450" fill="#ffffff" y="-37.499999" height="449.999989" fill-opacity="1"/><g clip-path="url(#d7200048a2)"><g clip-path="url(#1ecf4ffa49)"><g clip-path="url(#6f9f45acc4)"><path fill="#5271ff" d="M 168.132812 154.832031 C 168.011719 154.867188 167.890625 154.902344 167.769531 154.945312 C 163.105469 157.03125 161.742188 162.90625 162.519531 167.582031 C 163.007812 171.882812 166.183594 176.757812 170.957031 176.535156 C 171.644531 176.492188 172.316406 176.261719 172.914062 175.921875 C 177.90625 172.691406 178.695312 165.566406 176.535156 160.378906 C 175.417969 156.957031 171.847656 153.835938 168.132812 154.832031 Z M 147.496094 160.320312 C 144.480469 161.167969 142.90625 164.863281 143.164062 167.898438 C 143.617188 173.921875 148.046875 180.421875 154.484375 180.726562 C 155.074219 180.707031 155.65625 180.570312 156.199219 180.339844 C 160.0625 178.636719 160.613281 173.648438 159.511719 170.019531 C 158.15625 165.203125 154.226562 160.234375 148.875 160.144531 C 148.386719 160.136719 147.929688 160.199219 147.496094 160.320312 Z M 185.578125 168.070312 C 180.410156 169.71875 178.152344 175.90625 178.890625 180.957031 C 179.097656 184.679688 182.183594 188.949219 186.28125 188.207031 C 191.878906 186.710938 194.171875 179.703125 193.011719 174.472656 C 192.492188 170.949219 189.421875 167.292969 185.578125 168.070312 Z M 139.925781 180.925781 C 137.6875 181.476562 135.832031 183.378906 135.683594 185.851562 C 135.289062 192.453125 141.167969 199.199219 147.929688 198.84375 C 150.730469 198.625 152.5625 195.949219 152.59375 193.285156 C 152.644531 187.589844 148.171875 182.128906 142.652344 180.957031 C 141.738281 180.707031 140.800781 180.714844 139.925781 180.929688 Z M 166.246094 185.894531 C 161.871094 187.019531 157.992188 190.382812 156.003906 194.433594 C 153.925781 199.089844 152.566406 204.242188 152.832031 209.382812 C 152.535156 213.210938 156.265625 216.578125 160.019531 215.648438 C 164.554688 214.628906 167.632812 210.535156 172.054688 209.164062 C 175.703125 207.613281 179.613281 208.738281 183.359375 209.167969 C 186.585938 209.679688 190.484375 208.179688 191.167969 204.652344 C 191.519531 201.144531 188.929688 198.160156 186.78125 195.671875 C 182.699219 191.785156 178.351562 187.714844 172.851562 186.039062 C 170.640625 185.335938 168.382812 185.347656 166.246094 185.894531 Z M 166.246094 185.894531 " fill-opacity="1" fill-rule="nonzero"/></g></g></g><g fill="#5271ff" fill-opacity="1"><g transform="translate(54.00599, 286.48602)"><g><path d="M 10.554688 -35.039062 C 10.164062 -35.085938 9.722656 -35.183594 9.332031 -35.234375 C 6.988281 -35.625 3.910156 -35.671875 3.714844 -32.644531 C 3.078125 -23.796875 2.6875 -14.902344 2.441406 -6.011719 C 2.394531 -4.445312 3.714844 -2.980469 5.230469 -2.785156 C 6.351562 -2.640625 7.527344 -2.933594 8.648438 -3.324219 C 12.558594 -4.59375 17.296875 -6.109375 20.476562 -8.84375 C 23.359375 -11.289062 25.507812 -14.660156 25.949219 -18.421875 C 26.484375 -22.96875 24.433594 -27.265625 21.109375 -30.296875 C 18.082031 -33.035156 14.464844 -34.253906 10.554688 -35.039062 Z M 18.375 -17.984375 C 17.003906 -14.171875 13.488281 -12.753906 9.871094 -11.582031 C 10.066406 -16.859375 10.359375 -22.183594 10.652344 -27.511719 C 15.199219 -26.535156 20.28125 -23.308594 18.375 -17.984375 Z M 18.375 -17.984375 "/></g></g></g><g fill="#5271ff" fill-opacity="1"><g transform="translate(82.53993, 286.48602)"><g><path d="M 27.167969 -31.078125 C 23.164062 -37.675781 12.707031 -38.507812 7.476562 -33.179688 C 2.34375 -28.78125 1.613281 -18.570312 3.078125 -12.851562 C 4.105469 -8.941406 6.695312 -4.835938 10.703125 -3.566406 C 14.855469 -2.199219 19.449219 -3.714844 22.722656 -6.402344 C 26.046875 -9.1875 28.097656 -13.242188 28.78125 -17.496094 C 29.417969 -21.695312 29.464844 -27.316406 27.167969 -31.078125 Z M 18.277344 -12.070312 C 18.128906 -11.972656 18.03125 -11.875 17.886719 -11.726562 C 16.320312 -10.410156 13.828125 -9.871094 12.167969 -11.140625 C 11.09375 -11.921875 10.605469 -13.242188 10.261719 -14.511719 C 9.773438 -16.613281 9.675781 -18.8125 9.917969 -20.964844 C 10.164062 -22.917969 10.652344 -25.410156 11.777344 -27.023438 C 12.804688 -28.441406 14.511719 -29.320312 16.273438 -29.367188 C 19.300781 -29.417969 21.257812 -27.367188 21.597656 -24.53125 C 22.183594 -20.230469 21.550781 -15.199219 18.277344 -12.070312 Z M 18.277344 -12.070312 "/></g></g></g><g fill="#5271ff" fill-opacity="1"><g transform="translate(114.200878, 286.48602)"><g><path d="M 22.183594 -20.425781 C 18.617188 -20.328125 11.777344 -19.988281 13.78125 -14.367188 C 14.855469 -11.289062 18.617188 -11.289062 20.28125 -13.046875 C 20.523438 -13.046875 20.769531 -13.046875 20.964844 -13.046875 C 21.0625 -13.046875 21.160156 -13.046875 21.207031 -13.046875 C 21.160156 -12.707031 21.160156 -12.410156 21.0625 -12.214844 C 20.816406 -11.582031 20.425781 -10.945312 19.9375 -10.457031 C 17.542969 -8.015625 11.777344 -9.382812 10.3125 -12.410156 C 7.230469 -18.8125 14.707031 -31.371094 22.382812 -28.734375 C 26.828125 -27.167969 28.78125 -34.207031 24.335938 -35.769531 C 6.644531 -41.976562 -7.722656 -8.257812 11.679688 -2.785156 C 15.6875 -1.660156 20.035156 -1.464844 23.503906 -3.910156 C 26.679688 -6.15625 28.636719 -10.019531 28.832031 -13.828125 C 28.976562 -18.375 26.535156 -20.476562 22.183594 -20.425781 Z M 22.183594 -20.425781 "/></g></g></g><g fill="#5271ff" fill-opacity="1"><g transform="translate(145.470952, 286.48602)"><g/></g></g><g fill="#5271ff" fill-opacity="1"><g transform="translate(160.324241, 286.48602)"><g><path d="M 22.085938 -33.960938 C 18.375 -33.375 14.707031 -32.789062 10.996094 -32.203125 C 7.476562 -31.617188 6.058594 -29.90625 5.667969 -26.386719 C 4.738281 -18.226562 3.761719 -10.066406 2.492188 -1.953125 C 1.757812 2.640625 8.796875 4.640625 9.527344 0 C 10.117188 -3.859375 10.703125 -7.722656 11.191406 -11.582031 C 14.023438 -12.167969 16.808594 -12.460938 19.691406 -12.511719 C 24.382812 -12.558594 24.382812 -19.890625 19.691406 -19.839844 C 17.152344 -19.789062 14.660156 -19.59375 12.167969 -19.203125 C 12.214844 -19.398438 12.214844 -19.644531 12.265625 -19.890625 C 12.410156 -21.355469 12.902344 -23.113281 12.804688 -24.578125 C 12.804688 -24.773438 12.804688 -24.921875 12.851562 -25.117188 C 13.390625 -25.167969 13.976562 -25.265625 14.074219 -25.3125 C 17.398438 -25.800781 20.71875 -26.339844 24.042969 -26.875 C 28.683594 -27.609375 26.679688 -34.644531 22.085938 -33.960938 Z M 22.085938 -33.960938 "/></g></g></g><g fill="#5271ff" fill-opacity="1"><g transform="translate(189.4445, 286.48602)"><g><path d="M 4.640625 -30.101562 C 3.664062 -21.304688 2.933594 -12.460938 2.441406 -3.617188 C 2.148438 1.125 9.480469 1.074219 9.773438 -3.617188 C 10.261719 -12.460938 10.996094 -21.304688 11.972656 -30.101562 C 12.460938 -34.792969 5.132812 -34.792969 4.640625 -30.101562 Z M 4.640625 -30.101562 "/></g></g></g><g fill="#5271ff" fill-opacity="1"><g transform="translate(203.906915, 286.48602)"><g><path d="M 21.5 -29.660156 C 20.71875 -24.382812 19.789062 -19.105469 18.8125 -13.878906 L 14.464844 -23.847656 C 13.195312 -26.828125 8.550781 -25.753906 7.769531 -22.96875 C 5.71875 -15.34375 3.957031 -7.625 2.492188 0.0976562 C 1.613281 4.738281 8.699219 6.695312 9.578125 2.050781 C 10.359375 -2.199219 11.289062 -6.449219 12.265625 -10.703125 C 13.828125 -7.132812 15.34375 -3.617188 16.90625 -0.0507812 C 18.179688 2.882812 22.96875 2.003906 23.601562 -0.929688 C 25.558594 -9.773438 27.21875 -18.714844 28.539062 -27.707031 C 29.222656 -32.300781 22.136719 -34.304688 21.5 -29.660156 Z M 21.5 -29.660156 "/></g></g></g><g fill="#5271ff" fill-opacity="1"><g transform="translate(234.981544, 286.48602)"><g><path d="M 10.554688 -35.039062 C 10.164062 -35.085938 9.722656 -35.183594 9.332031 -35.234375 C 6.988281 -35.625 3.910156 -35.671875 3.714844 -32.644531 C 3.078125 -23.796875 2.6875 -14.902344 2.441406 -6.011719 C 2.394531 -4.445312 3.714844 -2.980469 5.230469 -2.785156 C 6.351562 -2.640625 7.527344 -2.933594 8.648438 -3.324219 C 12.558594 -4.59375 17.296875 -6.109375 20.476562 -8.84375 C 23.359375 -11.289062 25.507812 -14.660156 25.949219 -18.421875 C 26.484375 -22.96875 24.433594 -27.265625 21.109375 -30.296875 C 18.082031 -33.035156 14.464844 -34.253906 10.554688 -35.039062 Z M 18.375 -17.984375 C 17.003906 -14.171875 13.488281 -12.753906 9.871094 -11.582031 C 10.066406 -16.859375 10.359375 -22.183594 10.652344 -27.511719 C 15.199219 -26.535156 20.28125 -23.308594 18.375 -17.984375 Z M 18.375 -17.984375 "/></g></g></g><g fill="#5271ff" fill-opacity="1"><g transform="translate(263.515484, 286.48602)"><g><path d="M 20.378906 -10.359375 C 17.003906 -10.507812 13.632812 -10.359375 10.3125 -10.066406 C 10.554688 -11.921875 10.847656 -13.78125 11.09375 -15.636719 C 12.753906 -15.636719 14.414062 -15.589844 16.078125 -15.394531 C 18.082031 -15.199219 19.742188 -17.199219 19.742188 -19.058594 C 19.742188 -21.207031 18.082031 -22.527344 16.078125 -22.722656 C 14.804688 -22.871094 13.535156 -22.917969 12.214844 -22.96875 C 12.511719 -24.824219 12.851562 -26.730469 13.144531 -28.636719 C 15.636719 -28.636719 18.082031 -28.539062 20.574219 -28.390625 C 25.265625 -28.050781 25.265625 -35.378906 20.574219 -35.722656 C 17.054688 -35.964844 13.488281 -36.015625 9.96875 -35.867188 C 8.601562 -35.867188 7.625 -35.183594 7.035156 -34.253906 C 6.792969 -33.863281 6.597656 -33.375 6.5 -32.839844 C 4.886719 -23.847656 3.566406 -14.855469 2.441406 -5.863281 C 2.101562 -3.226562 5.035156 -2.003906 7.085938 -2.296875 C 11.484375 -3.03125 15.929688 -3.226562 20.378906 -3.03125 C 25.070312 -2.835938 25.070312 -10.164062 20.378906 -10.359375 Z M 20.378906 -10.359375 "/></g></g></g><g fill="#5271ff" fill-opacity="1"><g transform="translate(290.046194, 286.48602)"><g><path d="M 27.757812 -4.640625 C 25.070312 -8.308594 21.988281 -11.582031 18.472656 -14.414062 C 21.109375 -16.273438 23.308594 -18.863281 24.238281 -21.648438 C 26.09375 -27.21875 21.109375 -32.691406 15.441406 -32.449219 C 9.429688 -32.152344 5.472656 -26.582031 4.398438 -21.160156 C 2.980469 -14.121094 2.980469 -6.644531 2.441406 0.488281 C 2.050781 5.179688 9.382812 5.179688 9.773438 0.488281 C 10.066406 -3.371094 10.359375 -7.230469 10.703125 -11.09375 C 14.855469 -8.355469 18.472656 -4.984375 21.453125 -0.929688 C 24.1875 2.835938 30.589844 -0.832031 27.757812 -4.640625 Z M 17.296875 -24.1875 C 17.496094 -23.40625 15.296875 -21.453125 14.707031 -20.914062 C 13.683594 -19.988281 12.707031 -19.300781 11.433594 -19.15625 C 11.582031 -19.988281 11.777344 -20.816406 12.117188 -21.597656 C 12.460938 -22.527344 16.613281 -27.511719 17.296875 -24.1875 Z M 17.296875 -24.1875 "/></g></g></g><g clip-path="url(#ee0e2e1804)"><g clip-path="url(#a74b7a2c76)"><g clip-path="url(#98d0d8aa53)"><path fill="#5271ff" d="M 220.085938 119.320312 C 219.964844 119.316406 219.835938 119.320312 219.710938 119.324219 C 214.644531 120.027344 211.695312 125.285156 211.132812 129.992188 C 210.402344 134.257812 212.089844 139.828125 216.734375 140.945312 C 217.410156 141.097656 218.117188 141.0625 218.785156 140.90625 C 224.480469 139.199219 227.230469 132.574219 226.605469 126.992188 C 226.488281 123.394531 223.933594 119.402344 220.085938 119.320312 Z M 198.742188 118.820312 C 195.609375 118.792969 193.0625 121.902344 192.464844 124.886719 C 191.214844 130.796875 193.652344 138.277344 199.746094 140.367188 C 200.320312 140.511719 200.914062 140.546875 201.5 140.476562 C 205.6875 139.917969 207.609375 135.285156 207.566406 131.488281 C 207.609375 126.488281 205.226562 120.617188 200.113281 119.039062 C 199.644531 118.894531 199.1875 118.828125 198.742188 118.824219 Z M 233.140625 136.902344 C 227.714844 137.042969 223.820312 142.351562 223.117188 147.40625 C 222.277344 151.042969 224.046875 156 228.191406 156.433594 C 233.980469 156.5625 238.140625 150.472656 238.488281 145.125 C 238.972656 141.597656 237.046875 137.230469 233.140625 136.902344 Z M 185.710938 136.492188 C 183.410156 136.394531 181.097656 137.703125 180.265625 140.035156 C 178.042969 146.265625 181.800781 154.382812 188.390625 155.933594 C 191.144531 156.503906 193.648438 154.449219 194.421875 151.898438 C 196.066406 146.445312 193.292969 139.953125 188.324219 137.28125 C 187.515625 136.789062 186.613281 136.53125 185.710938 136.492188 Z M 209.597656 148.617188 C 205.082031 148.472656 200.417969 150.621094 197.375 153.953125 C 194.082031 157.84375 191.335938 162.410156 190.152344 167.421875 C 188.800781 171.011719 191.445312 175.289062 195.304688 175.445312 C 199.945312 175.734375 204.046875 172.660156 208.671875 172.582031 C 212.609375 172.113281 216.050781 174.28125 219.527344 175.746094 C 222.484375 177.136719 226.644531 176.785156 228.285156 173.589844 C 229.605469 170.320312 227.949219 166.730469 226.582031 163.742188 C 223.75 158.871094 220.710938 153.746094 215.898438 150.601562 C 213.972656 149.304688 211.804688 148.6875 209.597656 148.617188 Z M 209.597656 148.617188 " fill-opacity="1" fill-rule="nonzero"/></g></g></g><path stroke-linecap="round" transform="matrix(0, -0.748552, 0.75, 0, 111.365841, 234.728423)" fill="none" stroke-linejoin="miter" d="M 3.999787 4.001795 L 101.208315 4.001795 " stroke="#000000" stroke-width="8" stroke-opacity="1" stroke-miterlimit="4"/><path stroke-linecap="round" transform="matrix(0, -0.748552, 0.75, 0, 257.183248, 234.728423)" fill="none" stroke-linejoin="miter" d="M 3.999787 4.000461 L 101.208315 4.000461 " stroke="#000000" stroke-width="8" stroke-opacity="1" stroke-miterlimit="4"/><path stroke-linecap="round" transform="matrix(0.583218, -0.474786, 0.473498, 0.581636, 91.49912, 152.700504)" fill="none" stroke-linejoin="miter" d="M 3.999756 4.001526 L 162.563924 3.999558 " stroke="#000000" stroke-width="8" stroke-opacity="1" stroke-miterlimit="4"/><path stroke-linecap="round" transform="matrix(0.590566, 0.463367, -0.462965, 0.590054, 188.816447, 74.593346)" fill="none" stroke-linejoin="miter" d="M 4.00262 4.000592 L 157.872117 3.998516 " stroke="#000000" stroke-width="8" stroke-opacity="1" stroke-miterlimit="4"/><path stroke-linecap="round" transform="matrix(0.748552, 0, 0, 0.75, 111.367219, 228.729799)" fill="none" stroke-linejoin="miter" d="M 4.002478 4.000894 L 101.205788 4.000894 " stroke="#000000" stroke-width="8" stroke-opacity="1" stroke-miterlimit="4"/><path stroke-linecap="round" transform="matrix(0.748552, 0, 0, 0.75, 184.279533, 228.729799)" fill="none" stroke-linejoin="miter" d="M 3.999595 4.000894 L 101.208123 4.000894 " stroke="#000000" stroke-width="8" stroke-opacity="1" stroke-miterlimit="4"/><path stroke-linecap="round" transform="matrix(0, -0.754016, 0.75, 0, 254.184333, 114.420856)" fill="none" stroke-linejoin="miter" d="M 3.998065 3.999014 L 39.764861 3.999014 " stroke="#000000" stroke-width="8" stroke-opacity="1" stroke-miterlimit="4"/><path stroke-linecap="round" transform="matrix(0.749726, -0.00543108, 0.00543293, 0.74998, 225.652022, 81.846395)" fill="none" stroke-linejoin="miter" d="M 3.998962 3.999495 L 42.018087 3.998766 " stroke="#000000" stroke-width="8" stroke-opacity="1" stroke-miterlimit="4"/><path stroke-linecap="round" transform="matrix(0, -0.764459, 0.75, 0, 225.671166, 95.579401)" fill="none" stroke-linejoin="miter" d="M 3.997549 4.000945 L 14.646416 4.000945 " stroke="#000000" stroke-width="8" stroke-opacity="1" stroke-miterlimit="4"/></svg>