<svg xmlns="http://www.w3.org/2000/svg" xmlns:xlink="http://www.w3.org/1999/xlink" width="500" zoomAndPan="magnify" viewBox="0 0 375 374.999991" height="500" preserveAspectRatio="xMidYMid meet" version="1.0"><defs><g/><clipPath id="2f162be09e"><path d="M 107 47.046875 L 268 47.046875 L 268 254.046875 L 107 254.046875 Z M 107 47.046875 " clip-rule="nonzero"/></clipPath></defs><rect x="-37.5" width="450" fill="#ffffff" y="-37.499999" height="449.999989" fill-opacity="1"/><rect x="-37.5" width="450" fill="#ffffff" y="-37.499999" height="449.999989" fill-opacity="1"/><g clip-path="url(#2f162be09e)"><path fill="#000000" d="M 255.167969 229.992188 C 249.523438 223.347656 248.332031 214.046875 249.203125 205.628906 C 250.257812 195.53125 254.527344 186.09375 257.894531 176.621094 C 259.613281 171.792969 261.167969 166.875 261.929688 161.816406 C 262.664062 156.847656 262.832031 151.855469 262.4375 146.847656 C 261.65625 136.660156 258.890625 126.664062 255.113281 117.167969 C 254.648438 116.007812 254.171875 114.855469 253.679688 113.710938 C 253.640625 113.621094 253.585938 113.542969 253.515625 113.476562 C 254.089844 112.628906 254.59375 111.742188 255.027344 110.816406 C 257.574219 105.351562 257.425781 99.128906 256.871094 93.257812 C 256.429688 87.78125 255.671875 82.351562 254.59375 76.964844 C 253.480469 71.785156 251.792969 66.652344 249.03125 62.109375 C 248.347656 60.980469 247.597656 59.898438 246.777344 58.863281 C 245.957031 57.828125 245.074219 56.851562 244.128906 55.929688 C 243.183594 55.007812 242.183594 54.148438 241.128906 53.351562 C 240.078125 52.554688 238.976562 51.832031 237.832031 51.175781 C 236.683594 50.519531 235.5 49.9375 234.28125 49.429688 C 233.0625 48.925781 231.816406 48.496094 230.539062 48.148438 C 229.265625 47.800781 227.976562 47.535156 226.667969 47.351562 C 225.359375 47.167969 224.042969 47.066406 222.722656 47.046875 C 220.109375 47.035156 217.53125 47.355469 214.996094 47.996094 C 212.460938 48.640625 210.046875 49.589844 207.753906 50.847656 C 205.464844 52.09375 203.359375 53.601562 201.445312 55.367188 C 200.515625 56.226562 199.644531 57.148438 198.835938 58.121094 C 197.949219 59.15625 197.203125 60.273438 196.402344 61.363281 C 195.726562 62.363281 194.859375 63.144531 193.796875 63.710938 L 193.617188 63.792969 L 193.308594 63.90625 C 193.054688 63.988281 192.800781 64.058594 192.539062 64.109375 L 192.378906 64.140625 L 192.265625 64.140625 L 192.042969 64.164062 C 191.777344 64.191406 191.507812 64.199219 191.242188 64.195312 C 190.242188 64.175781 189.265625 64.027344 188.304688 63.75 C 187.1875 63.46875 186.089844 63.109375 184.992188 62.757812 C 182.777344 62.050781 180.496094 61.335938 178.152344 61.3125 C 177.0625 61.285156 176 61.449219 174.972656 61.804688 C 173.941406 62.160156 173.007812 62.683594 172.164062 63.375 C 168.898438 66.066406 167.816406 70.785156 168.378906 74.820312 C 169.0625 79.695312 172.578125 83.644531 176.320312 86.558594 C 178.417969 88.160156 180.597656 89.636719 182.859375 90.988281 C 185.585938 92.664062 188.316406 94.335938 191.050781 96 L 199.449219 101.128906 C 200.496094 101.765625 201.804688 102.402344 202.476562 103.398438 C 203.152344 104.394531 203.058594 105.707031 202.835938 106.875 C 202.425781 108.859375 201.816406 110.777344 201.007812 112.632812 L 201.007812 112.667969 L 200.953125 112.800781 L 200.789062 113.179688 C 200.667969 113.453125 200.542969 113.722656 200.417969 113.992188 C 200.179688 114.511719 199.9375 115.03125 199.679688 115.539062 C 199.152344 116.601562 198.597656 117.652344 198.015625 118.683594 C 195.691406 122.851562 193.003906 126.773438 189.964844 130.449219 C 188.742188 131.9375 187.425781 133.339844 186.015625 134.652344 C 185.917969 134.757812 185.839844 134.878906 185.785156 135.011719 C 185.730469 135.148438 185.703125 135.285156 185.707031 135.433594 C 185.707031 135.578125 185.734375 135.714844 185.789062 135.851562 C 185.847656 135.984375 185.925781 136.101562 186.027344 136.207031 C 186.132812 136.308594 186.25 136.386719 186.382812 136.445312 C 186.519531 136.5 186.65625 136.53125 186.800781 136.53125 C 186.949219 136.53125 187.089844 136.507812 187.222656 136.453125 C 187.359375 136.398438 187.476562 136.320312 187.582031 136.222656 C 190.746094 133.320312 193.410156 129.851562 195.839844 126.335938 C 198.558594 122.476562 200.878906 118.390625 202.796875 114.078125 C 203.636719 112.230469 204.304688 110.320312 204.796875 108.351562 C 205.003906 107.535156 205.136719 106.710938 205.199219 105.875 C 210.898438 106.257812 216.59375 106.269531 222.292969 105.898438 C 223.925781 105.792969 225.546875 105.65625 227.171875 105.488281 C 227.667969 108.933594 229 112.019531 231.164062 114.746094 C 234.320312 118.609375 239.253906 121.027344 244.28125 120.0625 C 247.296875 119.476562 249.945312 117.730469 252.003906 115.445312 C 255.820312 124.492188 258.773438 134.050781 259.917969 143.796875 C 260.515625 148.734375 260.582031 153.679688 260.113281 158.632812 C 259.609375 163.691406 258.296875 168.570312 256.679688 173.382812 C 253.457031 182.972656 249.066406 192.308594 247.421875 202.363281 C 246.035156 210.859375 246.492188 220.132812 250.890625 227.734375 C 252.980469 231.34375 256.007812 234.097656 258.976562 236.957031 C 261.542969 239.425781 264.550781 242.273438 265.160156 245.957031 C 265.257812 246.570312 265.277344 247.183594 265.21875 247.796875 C 260.421875 249.085938 255.5625 250.074219 250.640625 250.761719 C 248.097656 251.113281 245.539062 251.371094 242.976562 251.554688 C 240.546875 251.722656 238.027344 251.96875 235.597656 251.789062 C 234.6875 251.78125 233.871094 251.503906 233.140625 250.964844 C 232.390625 250.316406 232.164062 249.261719 232.03125 248.304688 C 231.664062 245.769531 231.5 243.1875 231.238281 240.632812 L 229.589844 224.511719 C 228.53125 214.199219 227.566406 203.871094 226.410156 193.574219 C 225.523438 185.78125 224.351562 177.902344 221.59375 170.539062 C 218.933594 163.382812 214.648438 156.804688 208.160156 152.566406 C 201.066406 147.929688 192.199219 146.933594 184.007812 148.484375 C 175.503906 150.089844 167.90625 154.488281 161.683594 160.417969 C 155.355469 166.441406 150.472656 173.855469 146.480469 181.582031 C 142.011719 190.273438 138.449219 199.324219 135.796875 208.730469 C 133.101562 218.261719 131.367188 227.960938 130.589844 237.835938 C 130.4375 239.773438 130.335938 241.714844 130.261719 243.65625 C 127.1875 242.699219 124.320312 241.125 122.324219 238.527344 C 120.328125 235.925781 119.308594 232.765625 118.953125 229.625 C 118.511719 225.753906 119.054688 221.871094 119.898438 218.109375 C 120.8125 214.015625 122 209.992188 122.933594 205.90625 C 124.8125 197.59375 126.054688 189.191406 126.65625 180.691406 C 126.949219 176.589844 127.140625 172.460938 127.050781 168.351562 C 126.96875 164.652344 126.578125 160.855469 125.175781 157.398438 C 124.570312 155.8125 123.726562 154.359375 122.644531 153.046875 C 121.566406 151.734375 120.304688 150.625 118.859375 149.722656 C 116.199219 148.109375 112.910156 147.324219 109.847656 148.109375 C 109.085938 148.3125 108.363281 148.601562 107.671875 148.976562 C 106.417969 149.652344 107.535156 151.566406 108.796875 150.886719 C 110.019531 150.230469 111.324219 149.933594 112.710938 150.003906 C 114.113281 150.082031 115.441406 150.429688 116.703125 151.046875 C 118.078125 151.726562 119.292969 152.625 120.347656 153.738281 C 121.402344 154.847656 122.234375 156.109375 122.84375 157.515625 C 124.324219 160.753906 124.726562 164.402344 124.828125 167.929688 C 124.949219 171.957031 124.761719 176.007812 124.492188 180.03125 C 123.933594 188.390625 122.734375 196.660156 120.902344 204.835938 C 119.992188 208.898438 118.820312 212.898438 117.890625 216.960938 C 117.003906 220.796875 116.355469 224.78125 116.660156 228.730469 C 116.929688 232.140625 117.820312 235.570312 119.644531 238.5 C 120.625 240.023438 121.824219 241.355469 123.234375 242.492188 C 124.648438 243.628906 126.207031 244.511719 127.90625 245.144531 C 128.75 245.476562 129.613281 245.757812 130.488281 245.992188 C 130.632812 246.035156 130.78125 246.046875 130.929688 246.03125 C 131.058594 246.078125 131.1875 246.113281 131.320312 246.125 C 148.3125 247.820312 165.339844 248.28125 182.398438 247.507812 C 184.480469 247.410156 186.5625 247.300781 188.636719 247.167969 C 190.234375 247.097656 191.8125 246.902344 193.378906 246.574219 C 196.480469 245.859375 199.789062 243.855469 200.539062 240.542969 C 200.691406 239.875 200.722656 239.203125 200.640625 238.527344 C 200.554688 237.847656 200.355469 237.203125 200.046875 236.597656 C 199.734375 235.988281 199.332031 235.449219 198.832031 234.984375 C 198.332031 234.519531 197.765625 234.152344 197.136719 233.882812 C 195.128906 232.996094 192.910156 232.863281 190.835938 232.164062 C 190.015625 231.914062 189.320312 231.472656 188.746094 230.835938 C 187.828125 229.691406 187.878906 228.175781 188.164062 226.816406 C 188.960938 222.949219 190.207031 219.203125 191.390625 215.445312 C 193.539062 208.667969 195.421875 201.714844 194.300781 194.578125 C 193.65625 190.410156 191.816406 186.035156 188.714844 183.039062 C 189.488281 181.625 190.175781 180.171875 190.773438 178.675781 C 191.425781 177.066406 192.003906 175.429688 192.570312 173.804688 C 193.042969 172.453125 190.898438 171.871094 190.433594 173.214844 C 189.476562 175.957031 188.449219 178.941406 187.023438 181.660156 C 186.277344 181.132812 185.484375 180.691406 184.644531 180.332031 C 179.828125 178.320312 173.535156 179.445312 169.855469 183.199219 C 168.03125 185.058594 166.226562 188.339844 168.199219 190.703125 C 169.160156 191.84375 170.941406 192.402344 172.363281 192.644531 C 174.023438 192.917969 175.679688 192.875 177.320312 192.515625 C 181.871094 191.546875 185.140625 188.601562 187.550781 184.953125 C 190.113281 187.609375 191.574219 191.480469 192.148438 194.980469 C 193.226562 201.542969 191.417969 208.050781 189.460938 214.265625 C 188.359375 217.78125 187.183594 221.28125 186.359375 224.894531 C 185.949219 226.667969 185.519531 228.4375 186.023438 230.210938 C 186.308594 231.28125 186.863281 232.183594 187.695312 232.921875 C 189.285156 234.296875 191.410156 234.660156 193.40625 235.089844 C 195.179688 235.464844 197.152344 235.882812 198.0625 237.484375 C 199.628906 240.257812 196.96875 243.007812 194.511719 243.976562 C 191.519531 245.171875 188.03125 245.066406 184.867188 245.230469 C 168.921875 246.070312 152.988281 245.828125 137.074219 244.5 C 135.539062 244.371094 134.003906 244.226562 132.472656 244.082031 C 132.820312 234.445312 134.105469 224.933594 136.324219 215.550781 C 138.542969 206.164062 141.65625 197.085938 145.667969 188.316406 C 149.296875 180.402344 153.617188 172.683594 159.34375 166.082031 C 164.898438 159.675781 171.804688 154.359375 179.964844 151.777344 C 187.6875 149.335938 196.460938 149.160156 203.886719 152.695312 C 210.785156 155.976562 215.582031 162.042969 218.582031 168.929688 C 221.660156 176.019531 223.015625 183.773438 223.9375 191.378906 C 225.152344 201.300781 226.019531 211.273438 227.042969 221.214844 C 227.578125 226.496094 228.117188 231.777344 228.660156 237.058594 C 228.9375 239.71875 229.207031 242.375 229.476562 245.03125 C 229.699219 247.207031 229.613281 249.878906 230.921875 251.742188 C 232.1875 253.539062 234.363281 253.980469 236.433594 254.011719 C 238.921875 254.046875 241.4375 253.867188 243.914062 253.671875 C 249.074219 253.269531 254.1875 252.539062 259.253906 251.476562 C 261.691406 250.96875 264.113281 250.375 266.515625 249.707031 C 266.925781 249.597656 267.179688 249.339844 267.289062 248.929688 C 268.734375 240.550781 259.851562 235.503906 255.167969 229.992188 Z M 250.066406 114.253906 C 248.542969 115.914062 246.699219 117.0625 244.539062 117.707031 C 242.367188 118.300781 240.242188 118.167969 238.160156 117.316406 C 236.050781 116.429688 234.277344 115.101562 232.839844 113.328125 C 231.320312 111.472656 230.273438 109.378906 229.699219 107.046875 C 228.253906 101.453125 229.28125 95.53125 230.691406 90.039062 C 232.121094 84.460938 234.128906 79.097656 236.710938 73.949219 C 237.964844 71.445312 239.347656 69.011719 240.851562 66.648438 C 241.617188 65.445312 239.699219 64.332031 238.933594 65.53125 C 235.730469 70.578125 233.09375 75.90625 231.027344 81.515625 C 230.015625 84.265625 229.152344 87.066406 228.441406 89.910156 C 227.664062 92.859375 227.148438 95.855469 226.886719 98.890625 C 226.777344 100.367188 226.777344 101.84375 226.886719 103.320312 C 221.058594 103.910156 215.214844 104.101562 209.359375 103.898438 C 207.898438 103.847656 206.441406 103.769531 204.984375 103.667969 C 204.640625 102.519531 203.988281 101.589844 203.03125 100.867188 C 201.828125 99.996094 200.582031 99.195312 199.289062 98.46875 L 195.207031 95.96875 L 186.964844 90.902344 C 182.5625 88.207031 177.90625 85.652344 174.390625 81.820312 C 173.589844 80.960938 172.882812 80.03125 172.269531 79.03125 C 171.945312 78.492188 171.648438 77.941406 171.382812 77.371094 C 171.339844 77.285156 171.300781 77.195312 171.265625 77.101562 C 171.265625 77.074219 171.1875 76.914062 171.175781 76.875 C 171.085938 76.644531 171.007812 76.433594 170.933594 76.171875 C 170.789062 75.691406 170.675781 75.207031 170.585938 74.714844 C 170.585938 74.609375 170.550781 74.507812 170.539062 74.402344 L 170.515625 74.210938 C 170.484375 73.960938 170.464844 73.710938 170.453125 73.457031 C 170.425781 72.953125 170.425781 72.449219 170.453125 71.945312 C 170.453125 71.714844 170.488281 71.480469 170.515625 71.25 C 170.511719 71.207031 170.511719 71.164062 170.515625 71.121094 L 170.515625 71.066406 C 170.542969 70.921875 170.5625 70.78125 170.589844 70.621094 C 170.675781 70.148438 170.789062 69.683594 170.933594 69.226562 C 171.003906 68.992188 171.082031 68.757812 171.167969 68.527344 L 171.28125 68.234375 C 171.3125 68.171875 171.339844 68.109375 171.367188 68.042969 C 171.570312 67.609375 171.796875 67.191406 172.054688 66.785156 C 172.171875 66.601562 172.300781 66.421875 172.425781 66.242188 C 172.441406 66.226562 172.453125 66.210938 172.460938 66.191406 L 172.5 66.148438 L 172.757812 65.84375 C 173.070312 65.496094 173.40625 65.179688 173.765625 64.886719 L 173.804688 64.851562 L 173.855469 64.816406 C 173.953125 64.753906 174.046875 64.683594 174.136719 64.621094 C 174.347656 64.484375 174.5625 64.359375 174.785156 64.242188 C 174.875 64.195312 174.964844 64.152344 175.050781 64.109375 L 175.1875 64.042969 C 175.410156 63.960938 175.632812 63.878906 175.863281 63.8125 C 176.09375 63.746094 176.304688 63.695312 176.535156 63.648438 L 176.769531 63.609375 L 176.933594 63.609375 C 177.023438 63.609375 177.121094 63.609375 177.21875 63.582031 C 179.402344 63.414062 181.375 63.996094 183.515625 64.664062 C 185.660156 65.332031 187.820312 66.105469 190.089844 66.363281 C 191.195312 66.519531 192.285156 66.453125 193.363281 66.160156 C 194.445312 65.867188 195.421875 65.375 196.296875 64.683594 C 197.316406 63.757812 198.195312 62.710938 198.929688 61.546875 C 199.632812 60.539062 200.402344 59.585938 201.230469 58.679688 C 204.621094 55 208.691406 52.363281 213.433594 50.769531 C 215.761719 49.972656 218.152344 49.496094 220.605469 49.332031 C 223.058594 49.167969 225.492188 49.324219 227.902344 49.800781 C 230.359375 50.292969 232.714844 51.082031 234.964844 52.171875 C 237.21875 53.265625 239.300781 54.621094 241.207031 56.242188 C 245.027344 59.625 247.863281 63.6875 249.71875 68.4375 C 251.679688 73.269531 252.757812 78.410156 253.515625 83.546875 C 253.886719 86.089844 254.179688 88.6875 254.449219 91.273438 C 254.8125 94.222656 254.988281 97.1875 254.988281 100.160156 C 254.992188 103.042969 254.523438 105.847656 253.585938 108.574219 C 252.796875 110.707031 251.625 112.601562 250.066406 114.253906 Z M 180.488281 188.960938 C 178.027344 190.355469 174.976562 191.0625 172.1875 190.351562 C 171.101562 190.078125 169.332031 189.542969 169.527344 188.105469 C 169.730469 187.117188 170.152344 186.230469 170.792969 185.449219 C 173.628906 181.773438 179.277344 180.683594 183.503906 182.238281 C 184.367188 182.5625 185.171875 182.992188 185.917969 183.535156 C 184.566406 185.800781 182.753906 187.609375 180.488281 188.960938 Z M 180.488281 188.960938 " fill-opacity="1" fill-rule="nonzero"/></g><g fill="#000000" fill-opacity="1"><g transform="translate(80.881112, 295.269237)"><g><path d="M 0.53125 -2.328125 L 4.484375 -2.328125 L 4.484375 -22.109375 L 0.53125 -22.109375 L 0.53125 -24.421875 L 7.875 -24.421875 C 9.707031 -24.421875 11.363281 -24.304688 12.84375 -24.078125 C 14.332031 -23.847656 15.765625 -23.457031 17.140625 -22.90625 C 18.609375 -22.320312 19.832031 -21.582031 20.8125 -20.6875 C 21.800781 -19.789062 22.59375 -18.648438 23.1875 -17.265625 C 23.789062 -15.828125 24.09375 -14.191406 24.09375 -12.359375 C 24.09375 -10.648438 23.847656 -9.101562 23.359375 -7.71875 C 22.867188 -6.332031 22.171875 -5.160156 21.265625 -4.203125 C 20.359375 -3.265625 19.253906 -2.472656 17.953125 -1.828125 C 16.648438 -1.191406 15.207031 -0.726562 13.625 -0.4375 C 12.0625 -0.144531 10.34375 0 8.46875 0 L 0.53125 0 Z M 8.3125 -2.328125 C 9.71875 -2.328125 10.96875 -2.425781 12.0625 -2.625 C 13.164062 -2.820312 14.207031 -3.148438 15.1875 -3.609375 C 16.21875 -4.078125 17.070312 -4.691406 17.75 -5.453125 C 18.425781 -6.210938 18.957031 -7.164062 19.34375 -8.3125 C 19.738281 -9.46875 19.9375 -10.816406 19.9375 -12.359375 C 19.9375 -13.484375 19.828125 -14.515625 19.609375 -15.453125 C 19.398438 -16.398438 19.097656 -17.21875 18.703125 -17.90625 C 18.328125 -18.550781 17.851562 -19.125 17.28125 -19.625 C 16.707031 -20.125 16.09375 -20.535156 15.4375 -20.859375 C 14.800781 -21.148438 14.082031 -21.390625 13.28125 -21.578125 C 12.488281 -21.765625 11.679688 -21.894531 10.859375 -21.96875 C 10.078125 -22.03125 9.226562 -22.0625 8.3125 -22.0625 Z M 8.3125 -2.328125 "/></g></g></g><g fill="#000000" fill-opacity="1"><g transform="translate(108.121371, 295.269237)"><g><path d="M 12.90625 0.4375 C 11.425781 0.4375 10.046875 0.203125 8.765625 -0.265625 C 7.492188 -0.734375 6.398438 -1.382812 5.484375 -2.21875 C 4.597656 -3.03125 3.835938 -3.976562 3.203125 -5.0625 C 2.566406 -6.15625 2.101562 -7.304688 1.8125 -8.515625 C 1.507812 -9.722656 1.359375 -10.960938 1.359375 -12.234375 C 1.359375 -14.867188 1.972656 -17.253906 3.203125 -19.390625 C 3.847656 -20.515625 4.617188 -21.476562 5.515625 -22.28125 C 6.421875 -23.09375 7.492188 -23.738281 8.734375 -24.21875 C 10.023438 -24.6875 11.414062 -24.921875 12.90625 -24.921875 C 14.375 -24.921875 15.75 -24.679688 17.03125 -24.203125 C 18.3125 -23.734375 19.40625 -23.082031 20.3125 -22.25 C 21.195312 -21.4375 21.953125 -20.484375 22.578125 -19.390625 C 23.210938 -18.304688 23.679688 -17.160156 23.984375 -15.953125 C 24.273438 -14.742188 24.421875 -13.503906 24.421875 -12.234375 C 24.421875 -9.597656 23.8125 -7.210938 22.59375 -5.078125 C 21.9375 -3.953125 21.160156 -2.988281 20.265625 -2.1875 C 19.367188 -1.382812 18.304688 -0.753906 17.078125 -0.296875 C 15.796875 0.191406 14.40625 0.4375 12.90625 0.4375 Z M 12.90625 -1.828125 C 14.039062 -1.828125 15.085938 -2.113281 16.046875 -2.6875 C 17.003906 -3.269531 17.789062 -4.066406 18.40625 -5.078125 C 19.007812 -6.054688 19.46875 -7.15625 19.78125 -8.375 C 20.101562 -9.601562 20.265625 -10.878906 20.265625 -12.203125 C 20.265625 -13.265625 20.164062 -14.296875 19.96875 -15.296875 C 19.769531 -16.304688 19.460938 -17.242188 19.046875 -18.109375 C 18.148438 -20.015625 16.96875 -21.332031 15.5 -22.0625 C 14.707031 -22.457031 13.84375 -22.65625 12.90625 -22.65625 C 11.769531 -22.65625 10.722656 -22.363281 9.765625 -21.78125 C 8.816406 -21.207031 8.03125 -20.414062 7.40625 -19.40625 C 6.789062 -18.425781 6.320312 -17.320312 6 -16.09375 C 5.675781 -14.863281 5.515625 -13.585938 5.515625 -12.265625 C 5.515625 -10.023438 5.925781 -8.046875 6.75 -6.328125 C 7.1875 -5.398438 7.691406 -4.609375 8.265625 -3.953125 C 8.847656 -3.296875 9.523438 -2.785156 10.296875 -2.421875 C 11.097656 -2.023438 11.96875 -1.828125 12.90625 -1.828125 Z M 12.90625 -1.828125 "/></g></g></g><g fill="#000000" fill-opacity="1"><g transform="translate(135.702411, 295.269237)"><g><path d="M 12.78125 0.4375 C 11.320312 0.4375 9.957031 0.195312 8.6875 -0.28125 C 7.414062 -0.757812 6.332031 -1.425781 5.4375 -2.28125 C 4.5625 -3.113281 3.804688 -4.078125 3.171875 -5.171875 C 2.546875 -6.273438 2.085938 -7.4375 1.796875 -8.65625 C 1.503906 -9.851562 1.359375 -11.078125 1.359375 -12.328125 C 1.359375 -13.960938 1.644531 -15.535156 2.21875 -17.046875 C 2.800781 -18.554688 3.617188 -19.898438 4.671875 -21.078125 C 5.734375 -22.265625 7.0625 -23.203125 8.65625 -23.890625 C 10.257812 -24.578125 12 -24.921875 13.875 -24.921875 C 15.644531 -24.921875 17.253906 -24.59375 18.703125 -23.9375 C 20.160156 -23.28125 21.285156 -22.394531 22.078125 -21.28125 C 22.867188 -20.164062 23.265625 -18.941406 23.265625 -17.609375 C 23.265625 -17.148438 23.148438 -16.710938 22.921875 -16.296875 C 22.691406 -15.890625 22.363281 -15.554688 21.9375 -15.296875 C 21.507812 -15.046875 21.023438 -14.921875 20.484375 -14.921875 C 19.972656 -14.921875 19.507812 -15.039062 19.09375 -15.28125 C 18.675781 -15.53125 18.347656 -15.847656 18.109375 -16.234375 C 17.867188 -16.628906 17.75 -17.046875 17.75 -17.484375 C 17.75 -17.953125 17.859375 -18.382812 18.078125 -18.78125 C 18.296875 -19.175781 18.566406 -19.488281 18.890625 -19.71875 C 19.210938 -19.957031 19.519531 -20.078125 19.8125 -20.078125 L 19.875 -20.078125 C 19.445312 -20.679688 18.875 -21.191406 18.15625 -21.609375 C 17.4375 -22.035156 16.738281 -22.316406 16.0625 -22.453125 C 15.4375 -22.585938 14.8125 -22.65625 14.1875 -22.65625 C 12.46875 -22.65625 10.945312 -22.195312 9.625 -21.28125 C 8.300781 -20.375 7.300781 -19.140625 6.625 -17.578125 C 5.945312 -16.015625 5.609375 -14.273438 5.609375 -12.359375 C 5.609375 -11.085938 5.8125 -9.847656 6.21875 -8.640625 C 6.625 -7.441406 7.191406 -6.382812 7.921875 -5.46875 C 8.640625 -4.539062 9.515625 -3.804688 10.546875 -3.265625 C 11.585938 -2.734375 12.679688 -2.46875 13.828125 -2.46875 C 14.640625 -2.46875 15.429688 -2.617188 16.203125 -2.921875 C 16.984375 -3.234375 17.644531 -3.640625 18.1875 -4.140625 C 18.71875 -4.628906 19.132812 -5.148438 19.4375 -5.703125 C 19.75 -6.253906 19.90625 -6.765625 19.90625 -7.234375 L 19.90625 -9.515625 L 15.3125 -9.515625 L 15.3125 -11.953125 L 25.890625 -11.953125 L 25.890625 -9.515625 L 23.234375 -9.515625 L 23.234375 0 L 21.28125 0 L 20.484375 -3.421875 C 20.117188 -2.722656 19.632812 -2.109375 19.03125 -1.578125 C 18.4375 -1.046875 17.78125 -0.640625 17.0625 -0.359375 C 15.6875 0.171875 14.257812 0.4375 12.78125 0.4375 Z M 12.78125 0.4375 "/></g></g></g><g fill="#000000" fill-opacity="1"><g transform="translate(163.445732, 295.269237)"><g/></g></g><g fill="#000000" fill-opacity="1"><g transform="translate(173.030226, 295.269237)"><g><path d="M 0.53125 0 L 0.53125 -2.328125 L 4.484375 -2.328125 L 4.484375 -22.109375 L 0.53125 -22.109375 L 0.53125 -24.421875 L 22.296875 -24.421875 L 22.296875 -15.515625 L 19.34375 -15.515625 L 19.34375 -22.109375 L 8.3125 -22.109375 L 8.3125 -13.703125 L 14.15625 -13.703125 L 14.15625 -17.125 L 16.390625 -17.125 L 16.390625 -7.640625 L 14.15625 -7.640625 L 14.15625 -11.765625 L 8.3125 -11.765625 L 8.3125 -2.328125 L 12.53125 -2.328125 L 12.53125 0 Z M 0.53125 0 "/></g></g></g><g fill="#000000" fill-opacity="1"><g transform="translate(197.690274, 295.269237)"><g><path d="M 0.484375 0 L 0.484375 -2.328125 L 4.453125 -2.328125 L 4.453125 -22.109375 L 0.484375 -22.109375 L 0.484375 -24.421875 L 12 -24.421875 L 12 -22.109375 L 8.265625 -22.109375 L 8.265625 -2.328125 L 12 -2.328125 L 12 0 Z M 0.484375 0 "/></g></g></g><g fill="#000000" fill-opacity="1"><g transform="translate(211.964581, 295.269237)"><g><path d="M 0.53125 0 L 0.53125 -2.328125 L 4.453125 -2.328125 L 4.453125 -22.109375 L 0.53125 -22.109375 L 0.53125 -24.421875 L 9.296875 -24.421875 L 20.84375 -4.3125 L 20.84375 -22.109375 L 16.875 -22.109375 L 16.875 -24.421875 L 27.65625 -24.421875 L 27.65625 -22.109375 L 23.9375 -22.109375 L 23.9375 0 L 19.609375 0 L 7.546875 -20.96875 L 7.546875 -2.328125 L 11.265625 -2.328125 L 11.265625 0 Z M 0.53125 0 "/></g></g></g><g fill="#000000" fill-opacity="1"><g transform="translate(241.67145, 295.269237)"><g><path d="M 0.53125 -2.328125 L 4.484375 -2.328125 L 4.484375 -22.109375 L 0.53125 -22.109375 L 0.53125 -24.421875 L 7.875 -24.421875 C 9.707031 -24.421875 11.363281 -24.304688 12.84375 -24.078125 C 14.332031 -23.847656 15.765625 -23.457031 17.140625 -22.90625 C 18.609375 -22.320312 19.832031 -21.582031 20.8125 -20.6875 C 21.800781 -19.789062 22.59375 -18.648438 23.1875 -17.265625 C 23.789062 -15.828125 24.09375 -14.191406 24.09375 -12.359375 C 24.09375 -10.648438 23.847656 -9.101562 23.359375 -7.71875 C 22.867188 -6.332031 22.171875 -5.160156 21.265625 -4.203125 C 20.359375 -3.265625 19.253906 -2.472656 17.953125 -1.828125 C 16.648438 -1.191406 15.207031 -0.726562 13.625 -0.4375 C 12.0625 -0.144531 10.34375 0 8.46875 0 L 0.53125 0 Z M 8.3125 -2.328125 C 9.71875 -2.328125 10.96875 -2.425781 12.0625 -2.625 C 13.164062 -2.820312 14.207031 -3.148438 15.1875 -3.609375 C 16.21875 -4.078125 17.070312 -4.691406 17.75 -5.453125 C 18.425781 -6.210938 18.957031 -7.164062 19.34375 -8.3125 C 19.738281 -9.46875 19.9375 -10.816406 19.9375 -12.359375 C 19.9375 -13.484375 19.828125 -14.515625 19.609375 -15.453125 C 19.398438 -16.398438 19.097656 -17.21875 18.703125 -17.90625 C 18.328125 -18.550781 17.851562 -19.125 17.28125 -19.625 C 16.707031 -20.125 16.09375 -20.535156 15.4375 -20.859375 C 14.800781 -21.148438 14.082031 -21.390625 13.28125 -21.578125 C 12.488281 -21.765625 11.679688 -21.894531 10.859375 -21.96875 C 10.078125 -22.03125 9.226562 -22.0625 8.3125 -22.0625 Z M 8.3125 -2.328125 "/></g></g></g><g fill="#000000" fill-opacity="1"><g transform="translate(268.911705, 295.269237)"><g><path d="M 0.53125 0 L 0.53125 -2.328125 L 4.53125 -2.328125 L 4.53125 -22.109375 L 0.53125 -22.109375 L 0.53125 -24.421875 L 22.609375 -24.421875 L 22.609375 -15.03125 L 19.671875 -15.03125 L 19.671875 -22.109375 L 8.34375 -22.109375 L 8.34375 -13.328125 L 14.390625 -13.328125 L 14.390625 -17.3125 L 16.546875 -17.3125 L 16.546875 -7.234375 L 14.390625 -7.234375 L 14.390625 -11.46875 L 8.34375 -11.46875 L 8.34375 -2.328125 L 19.671875 -2.328125 L 19.671875 -9.265625 L 22.609375 -9.265625 L 22.609375 0 Z M 0.53125 0 "/></g></g></g><g fill="#000000" fill-opacity="1"><g transform="translate(294.788843, 295.269237)"><g><path d="M 20.796875 0.53125 C 20.140625 0.53125 19.539062 0.414062 19 0.1875 C 18.46875 -0.0390625 18.019531 -0.363281 17.65625 -0.78125 C 17.3125 -1.15625 17 -1.671875 16.71875 -2.328125 C 16.4375 -2.992188 16.195312 -3.71875 16 -4.5 C 15.78125 -5.382812 15.597656 -6.265625 15.453125 -7.140625 C 15.347656 -7.753906 15.175781 -8.320312 14.9375 -8.84375 C 14.707031 -9.363281 14.457031 -9.765625 14.1875 -10.046875 C 13.925781 -10.304688 13.648438 -10.523438 13.359375 -10.703125 C 13.066406 -10.890625 12.820312 -11.007812 12.625 -11.0625 C 12.445312 -11.101562 12.285156 -11.125 12.140625 -11.125 L 8.3125 -11.125 L 8.3125 -2.328125 L 12 -2.328125 L 12 0 L 0.53125 0 L 0.53125 -2.328125 L 4.484375 -2.328125 L 4.484375 -22.109375 L 0.53125 -22.109375 L 0.53125 -24.421875 L 10.625 -24.421875 C 11.34375 -24.421875 11.941406 -24.410156 12.421875 -24.390625 C 12.898438 -24.367188 13.507812 -24.328125 14.25 -24.265625 C 15.144531 -24.171875 15.878906 -24.046875 16.453125 -23.890625 C 17.035156 -23.742188 17.6875 -23.507812 18.40625 -23.1875 C 19.082031 -22.875 19.625 -22.5 20.03125 -22.0625 C 20.4375 -21.625 20.78125 -21.050781 21.0625 -20.34375 C 21.332031 -19.664062 21.46875 -18.878906 21.46875 -17.984375 C 21.46875 -16.085938 20.878906 -14.675781 19.703125 -13.75 C 19.128906 -13.300781 18.503906 -12.9375 17.828125 -12.65625 C 17.160156 -12.382812 16.359375 -12.148438 15.421875 -11.953125 C 16.046875 -11.828125 16.566406 -11.648438 16.984375 -11.421875 C 17.410156 -11.191406 17.769531 -10.894531 18.0625 -10.53125 C 18.332031 -10.175781 18.550781 -9.796875 18.71875 -9.390625 C 18.882812 -8.992188 19.0625 -8.46875 19.25 -7.8125 C 19.382812 -7.28125 19.582031 -6.398438 19.84375 -5.171875 C 19.90625 -4.804688 20 -4.425781 20.125 -4.03125 C 20.257812 -3.644531 20.394531 -3.34375 20.53125 -3.125 C 20.664062 -2.894531 20.84375 -2.703125 21.0625 -2.546875 C 21.28125 -2.398438 21.523438 -2.328125 21.796875 -2.328125 C 22.910156 -2.328125 23.46875 -3.347656 23.46875 -5.390625 L 23.46875 -7.640625 L 25.65625 -7.640625 L 25.65625 -5.25 C 25.65625 -1.394531 24.035156 0.53125 20.796875 0.53125 Z M 10.34375 -13.5625 C 12.082031 -13.5625 13.488281 -13.6875 14.5625 -13.9375 C 15.644531 -14.195312 16.492188 -14.628906 17.109375 -15.234375 C 17.734375 -15.847656 18.046875 -16.664062 18.046875 -17.6875 C 18.046875 -18.5625 17.890625 -19.285156 17.578125 -19.859375 C 17.265625 -20.429688 16.765625 -20.882812 16.078125 -21.21875 C 15.410156 -21.539062 14.617188 -21.769531 13.703125 -21.90625 C 12.785156 -22.039062 11.617188 -22.109375 10.203125 -22.109375 L 8.3125 -22.109375 L 8.3125 -13.5625 Z M 10.34375 -13.5625 "/></g></g></g><g fill="#000000" fill-opacity="1"><g transform="translate(121.375915, 324.216573)"><g><path d="M 1.867188 -4.328125 L 1.867188 -7.894531 L 3.902344 -7.894531 C 4.429688 -7.894531 4.855469 -7.726562 5.175781 -7.394531 C 5.488281 -7.058594 5.652344 -6.644531 5.652344 -6.128906 C 5.652344 -5.617188 5.488281 -5.191406 5.152344 -4.84375 C 4.816406 -4.496094 4.40625 -4.328125 3.902344 -4.328125 Z M 6.554688 -6.117188 C 6.554688 -6.863281 6.273438 -7.507812 5.730469 -8.011719 C 5.203125 -8.5 4.546875 -8.757812 3.773438 -8.757812 L 0.964844 -8.757812 L 0.964844 0 L 1.867188 0 L 1.867188 -3.464844 L 2.910156 -3.464844 L 5.488281 0 L 6.695312 0 L 3.992188 -3.464844 C 4.675781 -3.503906 5.253906 -3.746094 5.730469 -4.199219 C 6.273438 -4.699219 6.554688 -5.34375 6.554688 -6.117188 Z M 6.554688 -6.117188 "/></g></g></g><g fill="#000000" fill-opacity="1"><g transform="translate(132.245925, 324.216573)"><g><path d="M 6.167969 0 L 6.167969 -0.835938 L 1.867188 -0.835938 L 1.867188 -3.953125 L 6.039062 -3.953125 L 6.039062 -4.804688 L 1.867188 -4.804688 L 1.867188 -7.921875 L 6.167969 -7.921875 L 6.167969 -8.757812 L 0.964844 -8.757812 L 0.964844 0 Z M 6.167969 0 "/></g></g></g><g fill="#000000" fill-opacity="1"><g transform="translate(143.244726, 324.216573)"><g><path d="M 3.386719 -4.121094 C 4.519531 -3.851562 5.292969 -3.554688 5.707031 -3.21875 C 5.988281 -2.988281 6.128906 -2.691406 6.128906 -2.332031 C 6.128906 -1.96875 6.054688 -1.675781 5.898438 -1.46875 C 5.511719 -0.925781 4.816406 -0.65625 3.839844 -0.65625 C 2.472656 -0.65625 1.699219 -1.121094 1.53125 -2.046875 L 0.476562 -2.046875 C 0.785156 -0.566406 1.90625 0.167969 3.839844 0.167969 C 4.699219 0.167969 5.421875 -0.0117188 6 -0.398438 C 6.695312 -0.851562 7.058594 -1.519531 7.058594 -2.394531 C 7.058594 -3.117188 6.773438 -3.671875 6.207031 -4.058594 C 5.808594 -4.339844 5.164062 -4.597656 4.277344 -4.828125 C 3.375 -5.0625 2.792969 -5.253906 2.523438 -5.394531 C 1.933594 -5.691406 1.636719 -6.105469 1.648438 -6.644531 C 1.648438 -6.929688 1.699219 -7.171875 1.828125 -7.355469 C 2.164062 -7.855469 2.757812 -8.113281 3.605469 -8.113281 C 4.804688 -8.113281 5.488281 -7.726562 5.667969 -6.980469 L 6.644531 -6.980469 C 6.324219 -8.242188 5.304688 -8.886719 3.605469 -8.886719 C 2.832031 -8.886719 2.152344 -8.679688 1.585938 -8.269531 C 1.003906 -7.855469 0.707031 -7.25 0.707031 -6.425781 C 0.707031 -5.304688 1.609375 -4.535156 3.386719 -4.121094 Z M 3.386719 -4.121094 "/></g></g></g><g fill="#000000" fill-opacity="1"><g transform="translate(154.501108, 324.216573)"><g><path d="M 9.003906 -2.679688 L 8.011719 -2.679688 C 7.703125 -2.113281 7.277344 -1.648438 6.734375 -1.3125 C 6.195312 -0.964844 5.589844 -0.796875 4.945312 -0.796875 C 3.980469 -0.796875 3.15625 -1.144531 2.472656 -1.867188 C 1.804688 -2.550781 1.480469 -3.386719 1.480469 -4.367188 C 1.480469 -5.34375 1.804688 -6.183594 2.472656 -6.878906 C 2.78125 -7.199219 3.15625 -7.457031 3.582031 -7.648438 C 3.992188 -7.84375 4.40625 -7.945312 4.816406 -7.945312 C 5.214844 -7.945312 5.5625 -7.894531 5.871094 -7.804688 C 6.8125 -7.519531 7.519531 -6.953125 7.996094 -6.09375 L 8.988281 -6.09375 C 8.65625 -6.917969 8.125 -7.585938 7.394531 -8.101562 C 6.644531 -8.617188 5.835938 -8.875 4.945312 -8.875 C 3.722656 -8.875 2.691406 -8.421875 1.839844 -7.535156 C 1.441406 -7.121094 1.132812 -6.632812 0.914062 -6.09375 C 0.683594 -5.550781 0.578125 -4.972656 0.578125 -4.367188 C 0.578125 -3.128906 0.992188 -2.085938 1.839844 -1.210938 C 2.691406 -0.308594 3.722656 0.128906 4.945312 0.128906 C 5.835938 0.128906 6.644531 -0.128906 7.40625 -0.644531 C 8.140625 -1.160156 8.667969 -1.828125 9.003906 -2.679688 Z M 9.003906 -2.679688 "/></g></g></g><g fill="#000000" fill-opacity="1"><g transform="translate(167.753755, 324.216573)"><g><path d="M 7.300781 -2.898438 L 7.300781 -8.757812 L 6.402344 -8.757812 L 6.402344 -2.769531 C 6.402344 -2.410156 6.335938 -2.113281 6.207031 -1.867188 C 5.835938 -1.144531 5.113281 -0.785156 4.042969 -0.785156 C 3.347656 -0.785156 2.792969 -0.941406 2.382812 -1.25 C 1.90625 -1.597656 1.675781 -2.097656 1.675781 -2.769531 L 1.675781 -8.757812 L 0.773438 -8.757812 L 0.773438 -2.898438 C 0.773438 -1.945312 1.082031 -1.199219 1.699219 -0.65625 C 2.28125 -0.140625 3.066406 0.117188 4.042969 0.117188 C 5.011719 0.117188 5.78125 -0.140625 6.375 -0.65625 C 6.992188 -1.199219 7.300781 -1.945312 7.300781 -2.898438 Z M 7.300781 -2.898438 "/></g></g></g><g fill="#000000" fill-opacity="1"><g transform="translate(179.692731, 324.216573)"><g><path d="M 6.167969 0 L 6.167969 -0.835938 L 1.867188 -0.835938 L 1.867188 -3.953125 L 6.039062 -3.953125 L 6.039062 -4.804688 L 1.867188 -4.804688 L 1.867188 -7.921875 L 6.167969 -7.921875 L 6.167969 -8.757812 L 0.964844 -8.757812 L 0.964844 0 Z M 6.167969 0 "/></g></g></g><g fill="#000000" fill-opacity="1"><g transform="translate(190.69153, 324.216573)"><g/></g></g><g fill="#000000" fill-opacity="1"><g transform="translate(198.032654, 324.216573)"><g><path d="M 2.382812 -3.21875 L 3.980469 -7.25 L 5.5625 -3.21875 Z M 7.816406 0 L 3.980469 -9.363281 L 0.128906 0 L 1.109375 0 L 2.046875 -2.382812 L 5.898438 -2.382812 L 6.839844 0 Z M 7.816406 0 "/></g></g></g><g fill="#000000" fill-opacity="1"><g transform="translate(209.842828, 324.216573)"><g/></g></g><g fill="#000000" fill-opacity="1"><g transform="translate(217.183952, 324.216573)"><g><path d="M 7.765625 -4.378906 C 7.765625 -5.011719 7.636719 -5.589844 7.40625 -6.128906 C 7.171875 -6.671875 6.851562 -7.136719 6.453125 -7.519531 C 6.039062 -7.90625 5.5625 -8.203125 5.023438 -8.421875 C 4.46875 -8.640625 3.875 -8.757812 3.257812 -8.757812 L 0.964844 -8.757812 L 0.964844 0 L 3.257812 0 C 3.875 0 4.46875 -0.101562 5.023438 -0.320312 C 5.5625 -0.539062 6.039062 -0.851562 6.453125 -1.238281 C 6.851562 -1.621094 7.171875 -2.074219 7.40625 -2.613281 C 7.636719 -3.15625 7.765625 -3.734375 7.765625 -4.378906 Z M 6.890625 -4.378906 C 6.890625 -3.375 6.53125 -2.539062 5.835938 -1.878906 C 5.140625 -1.222656 4.289062 -0.902344 3.285156 -0.902344 L 1.867188 -0.902344 L 1.867188 -7.855469 L 3.285156 -7.855469 C 4.289062 -7.855469 5.140625 -7.519531 5.835938 -6.878906 C 6.53125 -6.207031 6.890625 -5.371094 6.890625 -4.378906 Z M 6.890625 -4.378906 "/></g></g></g><g fill="#000000" fill-opacity="1"><g transform="translate(229.393392, 324.216573)"><g><path d="M 8.679688 -4.40625 C 8.679688 -3.398438 8.320312 -2.550781 7.625 -1.855469 C 6.917969 -1.144531 6.066406 -0.796875 5.074219 -0.796875 C 4.082031 -0.796875 3.234375 -1.144531 2.539062 -1.855469 C 1.828125 -2.550781 1.480469 -3.398438 1.480469 -4.40625 C 1.480469 -5.382812 1.828125 -6.234375 2.539062 -6.941406 C 3.234375 -7.636719 4.082031 -7.996094 5.074219 -7.996094 C 6.066406 -7.996094 6.917969 -7.636719 7.625 -6.941406 C 8.320312 -6.234375 8.679688 -5.382812 8.679688 -4.40625 Z M 9.582031 -4.40625 C 9.582031 -5.023438 9.453125 -5.601562 9.222656 -6.15625 C 8.988281 -6.695312 8.667969 -7.171875 8.253906 -7.585938 C 7.84375 -7.984375 7.367188 -8.308594 6.824219 -8.539062 C 6.273438 -8.769531 5.691406 -8.898438 5.074219 -8.898438 C 4.457031 -8.898438 3.863281 -8.769531 3.324219 -8.539062 C 2.78125 -8.308594 2.304688 -7.984375 1.894531 -7.585938 C 1.480469 -7.171875 1.160156 -6.695312 0.925781 -6.15625 C 0.695312 -5.601562 0.578125 -5.023438 0.578125 -4.40625 C 0.578125 -3.785156 0.695312 -3.195312 0.925781 -2.652344 C 1.160156 -2.097656 1.480469 -1.621094 1.894531 -1.210938 C 2.304688 -0.796875 2.78125 -0.476562 3.324219 -0.246094 C 3.863281 -0.0117188 4.457031 0.101562 5.074219 0.101562 C 5.691406 0.101562 6.273438 -0.0117188 6.824219 -0.246094 C 7.367188 -0.476562 7.84375 -0.796875 8.253906 -1.210938 C 8.667969 -1.621094 8.988281 -2.097656 9.222656 -2.652344 C 9.453125 -3.195312 9.582031 -3.785156 9.582031 -4.40625 Z M 9.582031 -4.40625 "/></g></g></g><g fill="#000000" fill-opacity="1"><g transform="translate(243.418787, 324.216573)"><g><path d="M 9.609375 -4.09375 L 5.046875 -4.09375 L 5.046875 -3.308594 L 8.601562 -3.308594 C 8.332031 -2.550781 7.882812 -1.933594 7.238281 -1.480469 C 6.59375 -1.015625 5.871094 -0.796875 5.085938 -0.796875 C 4.082031 -0.796875 3.234375 -1.144531 2.523438 -1.855469 C 1.828125 -2.5625 1.480469 -3.425781 1.480469 -4.417969 C 1.480469 -5.410156 1.828125 -6.257812 2.539062 -6.96875 C 3.234375 -7.664062 4.082031 -8.023438 5.085938 -8.023438 C 5.835938 -8.023438 6.515625 -7.804688 7.121094 -7.378906 C 7.742188 -6.953125 8.179688 -6.402344 8.460938 -5.691406 L 9.414062 -5.691406 C 9.117188 -6.660156 8.566406 -7.429688 7.765625 -8.023438 C 6.96875 -8.617188 6.039062 -8.925781 4.996094 -8.925781 C 4.429688 -8.925781 3.875 -8.796875 3.335938 -8.566406 C 2.78125 -8.332031 2.304688 -8.011719 1.894531 -7.597656 C 1.480469 -7.1875 1.160156 -6.710938 0.925781 -6.167969 C 0.695312 -5.617188 0.578125 -5.023438 0.578125 -4.40625 C 0.578125 -3.785156 0.695312 -3.195312 0.925781 -2.652344 C 1.160156 -2.097656 1.480469 -1.621094 1.894531 -1.210938 C 2.304688 -0.796875 2.78125 -0.476562 3.335938 -0.246094 C 3.875 -0.0117188 4.46875 0.101562 5.085938 0.101562 C 6.144531 0.101562 7.097656 -0.230469 7.945312 -0.914062 C 8.796875 -1.609375 9.324219 -2.484375 9.519531 -3.554688 Z M 9.609375 -4.09375 "/></g></g></g></svg>